<?xml version="1.0" standalone="no"?>
<!DOCTYPE svg PUBLIC "-//W3C//DTD SVG 20010904//EN"
 "http://www.w3.org/TR/2001/REC-SVG-20010904/DTD/svg10.dtd">
<svg version="1.0" xmlns="http://www.w3.org/2000/svg"
 width="300.000000pt" height="300.000000pt" viewBox="0 0 300.000000 300.000000"
 preserveAspectRatio="xMidYMid meet">
<metadata>
Created by potrace 1.11, written by Peter Selinger 2001-2013
</metadata>
<g transform="translate(0.000000,300.000000) scale(0.100000,-0.100000)"
fill="#000000" stroke="none">
<path d="M1430 2909 c-19 -4 -38 -5 -43 -2 -4 2 -13 0 -20 -5 -7 -5 -25 -12
-41 -16 -15 -4 -35 -13 -43 -21 -9 -9 -35 -15 -71 -15 -55 0 -114 -5 -119 -10
-2 -1 -6 -3 -10 -4 -59 -13 -115 -41 -179 -88 -27 -20 -62 -40 -77 -43 -15 -4
-27 -11 -27 -15 0 -5 -9 -12 -20 -15 -11 -4 -32 -17 -45 -31 -13 -13 -26 -24
-29 -24 -3 0 -16 -11 -30 -25 -14 -14 -23 -25 -22 -25 2 0 -10 -15 -27 -32
-35 -38 -117 -161 -117 -177 0 -6 -4 -11 -10 -11 -5 0 -10 -6 -10 -12 0 -7 -9
-32 -20 -56 -10 -23 -18 -44 -17 -46 1 -1 -4 -10 -11 -19 -8 -9 -11 -21 -7
-27 3 -5 2 -10 -4 -10 -5 0 -8 -8 -6 -17 1 -10 0 -22 -4 -28 -10 -17 -14 -57
-15 -132 -1 -40 -3 -73 -6 -73 -8 0 -6 -73 3 -86 3 -6 3 -14 -1 -18 -11 -11
-9 -60 3 -68 6 -5 5 -8 -3 -8 -7 0 -10 -4 -7 -10 3 -5 8 -24 10 -42 2 -18 6
-44 9 -58 3 -14 9 -41 13 -60 4 -19 8 -37 8 -40 1 -3 5 -18 9 -35 4 -16 10
-37 13 -45 4 -8 5 -18 5 -22 -1 -5 2 -8 8 -8 6 0 9 -3 8 -7 -5 -20 87 -183
149 -263 75 -98 243 -293 348 -406 35 -38 322 -328 359 -363 l36 -34 130 -2
c71 -1 130 2 130 6 0 5 5 9 11 9 11 0 210 200 375 377 156 167 218 238 309
353 19 25 41 52 48 60 6 8 11 18 9 22 -1 5 2 8 7 8 4 0 28 32 52 71 24 39 49
76 54 82 15 17 68 130 68 145 0 6 4 12 9 12 4 0 7 3 6 8 -2 6 10 87 19 122 10
42 15 128 16 245 0 127 -2 150 -22 228 -5 20 -6 37 -2 37 3 0 1 4 -4 8 -6 4
-15 25 -22 47 -13 48 -36 108 -43 115 -3 3 -21 35 -40 73 -19 37 -37 67 -41
67 -4 0 -11 9 -14 21 -10 31 -174 193 -212 210 -18 7 -33 17 -33 21 0 5 -8 8
-18 8 -10 0 -33 13 -52 30 -19 16 -41 29 -47 30 -7 0 -13 3 -13 8 0 4 -19 15
-43 26 -23 10 -49 22 -57 26 -8 4 -23 6 -32 4 -10 -1 -18 1 -18 5 0 4 -35 8
-77 10 -57 2 -92 9 -128 26 -71 34 -192 49 -265 34z"/>
<path d="M1381 232 c-9 -3 -7 -10 5 -23 9 -10 14 -19 11 -19 -3 0 0 -18 8 -40
8 -22 15 -41 15 -43 0 -1 3 -11 6 -23 5 -18 12 -20 57 -18 29 1 54 3 57 4 3 1
13 2 23 1 11 -2 17 5 17 17 0 10 3 22 7 26 4 3 8 14 9 24 5 36 14 66 24 76 5
5 10 13 10 16 0 6 -231 8 -249 2z"/>
<path d="M1727 204 c-10 -13 -16 -28 -12 -33 3 -5 1 -12 -5 -16 -7 -4 -7 -13
1 -26 6 -12 13 -18 16 -15 3 3 0 12 -6 20 -8 10 -9 16 -1 21 6 3 8 11 4 16 -3
6 2 19 12 30 9 10 15 21 13 23 -2 2 -12 -7 -22 -20z"/>
<path d="M1830 210 c11 -11 23 -20 27 -20 3 0 -2 9 -12 20 -10 11 -22 20 -27
20 -4 0 1 -9 12 -20z"/>
<path d="M1857 158 c-4 -12 -4 -24 -2 -27 3 -2 5 1 5 8 0 7 4 10 9 7 5 -4 7 3
4 14 -7 25 -9 25 -16 -2z"/>
<path d="M1797 163 c-4 -7 -14 -10 -22 -6 -10 3 -15 -1 -14 -13 0 -11 3 -14 5
-8 7 18 44 4 44 -16 0 -10 8 -24 17 -31 15 -12 16 -12 7 1 -5 8 -14 31 -19 50
-7 22 -13 31 -18 23z"/>
<path d="M1735 101 c-3 -5 -2 -12 3 -15 5 -3 9 1 9 9 0 17 -3 19 -12 6z"/>
</g>
</svg>
